<svg width="23" height="23" viewBox="0 0 23 23" fill="none" xmlns="http://www.w3.org/2000/svg">
<path d="M20.8694 10.6703V4.30472C20.8694 2.90055 20.2703 2.33888 18.7819 2.33888H15C13.5116 2.33888 12.9125 2.90055 12.9125 4.30472V10.6703C12.9125 12.0744 13.5116 12.6361 15 12.6361H18.7819C20.2703 12.6361 20.8694 12.0744 20.8694 10.6703Z" fill="#4182F9"/>
<path d="M20.8694 19.0953V17.4103C20.8694 16.0061 20.2703 15.4444 18.7819 15.4444H15C13.5116 15.4444 12.9125 16.0061 12.9125 17.4103V19.0953C12.9125 20.4994 13.5116 21.0611 15 21.0611H18.7819C20.2703 21.0611 20.8694 20.4994 20.8694 19.0953Z" fill="#4182F9"/>
<path d="M10.1042 12.7297V19.0953C10.1042 20.4994 9.50505 21.0611 8.01663 21.0611H4.23474C2.74633 21.0611 2.14722 20.4994 2.14722 19.0953V12.7297C2.14722 11.3256 2.74633 10.7639 4.23474 10.7639H8.01663C9.50505 10.7639 10.1042 11.3256 10.1042 12.7297Z" fill="#4182F9"/>
<path d="M10.1042 4.30472V5.98972C10.1042 7.39388 9.50505 7.95555 8.01663 7.95555H4.23474C2.74633 7.95555 2.14722 7.39388 2.14722 5.98972V4.30472C2.14722 2.90055 2.74633 2.33888 4.23474 2.33888H8.01663C9.50505 2.33888 10.1042 2.90055 10.1042 4.30472Z" fill="#4182F9"/>
</svg>
